<svg width="279" height="21" viewBox="0 0 279 21" fill="none" xmlns="http://www.w3.org/2000/svg">
<g filter="url(#filter0_d_10_1273)">
<path d="M8.30742 1.258C9.86142 1.258 11.2194 1.566 12.3814 2.182C13.5434 2.798 14.4394 3.666 15.0694 4.786C15.7134 5.892 16.0354 7.173 16.0354 8.629C16.0354 10.071 15.7134 11.352 15.0694 12.472C14.4394 13.592 13.5364 14.46 12.3604 15.076C11.1984 15.692 9.84742 16 8.30742 16H2.78442V1.258H8.30742ZM8.07642 12.892C9.43442 12.892 10.4914 12.521 11.2474 11.779C12.0034 11.037 12.3814 9.987 12.3814 8.629C12.3814 7.271 12.0034 6.214 11.2474 5.458C10.4914 4.702 9.43442 4.324 8.07642 4.324H6.41042V12.892H8.07642ZM30.6978 16.252C28.8598 16.252 27.2638 15.909 25.9098 15.223C24.5698 14.537 23.5338 13.571 22.8018 12.325C22.0838 11.079 21.7248 9.623 21.7248 7.957C21.7248 6.291 22.0838 4.835 22.8018 3.589C23.5338 2.343 24.5628 1.377 25.8888 0.691C27.2288 0.00500023 28.8108 -0.337 30.6348 -0.337C32.4588 -0.337 34.0338 0.00500023 35.3598 0.691C36.6858 1.377 37.7008 2.343 38.4048 3.589C39.1228 4.835 39.4818 6.291 39.4818 7.957C39.4818 9.623 39.1228 11.079 38.4048 12.325C37.7008 13.571 36.6858 14.537 35.3598 15.223C34.0338 15.909 32.4588 16.252 30.6348 16.252H30.6978ZM30.6978 13.144C32.0278 13.144 33.0778 12.773 33.8478 12.031C34.6178 11.289 35.0028 10.246 35.0028 8.902V7.012C35.0028 5.668 34.6178 4.625 33.8478 3.883C33.0778 3.141 32.0278 2.77 30.6978 2.77C29.3678 2.77 28.3178 3.141 27.5478 3.883C26.7778 4.625 26.3928 5.668 26.3928 7.012V8.902C26.3928 10.246 26.7778 11.289 27.5478 12.031C28.3178 12.773 29.3678 13.144 30.6978 13.144ZM54.1336 16.252C52.2956 16.252 50.6996 15.909 49.3456 15.223C48.0056 14.537 46.9696 13.571 46.2376 12.325C45.5196 11.079 45.1606 9.623 45.1606 7.957C45.1606 6.291 45.5196 4.835 46.2376 3.589C46.9696 2.343 47.9986 1.377 49.3246 0.691C50.6646 0.00500023 52.2466 -0.337 54.0706 -0.337C55.8946 -0.337 57.4696 0.00500023 58.7956 0.691C60.1216 1.377 61.1366 2.343 61.8406 3.589C62.5586 4.835 62.9176 6.291 62.9176 7.957C62.9176 9.623 62.5586 11.079 61.8406 12.325C61.1366 13.571 60.1216 14.537 58.7956 15.223C57.4696 15.909 55.8946 16.252 54.0706 16.252H54.1336ZM54.1336 13.144C55.4636 13.144 56.5136 12.773 57.2836 12.031C58.0536 11.289 58.4386 10.246 58.4386 8.902V7.012C58.4386 5.668 58.0536 4.625 57.2836 3.883C56.5136 3.141 55.4636 2.77 54.1336 2.77C52.8036 2.77 51.7536 3.141 50.9836 3.883C50.2136 4.625 49.8286 5.668 49.8286 7.012V8.902C49.8286 10.246 50.2136 11.289 50.9836 12.031C51.7536 12.773 52.8036 13.144 54.1336 13.144ZM76.2334 16.252C74.6934 16.252 73.3814 15.909 72.2974 15.223C71.2274 14.537 70.4294 13.571 69.9034 12.325C69.3774 11.079 69.1144 9.609 69.1144 7.915C69.1144 6.221 69.3774 4.751 69.9034 3.505C70.4294 2.259 71.2274 1.293 72.2974 0.607C73.3814 -0.079 74.6934 -0.422 76.2334 -0.422C77.6914 -0.422 78.9614 -0.107 80.0434 0.523C81.1394 1.139 81.9444 2.007 82.4584 3.127H82.7494V0.124H86.4814V16H82.7494V12.997H82.4584C81.9584 14.117 81.1534 14.985 80.0434 15.601C78.9614 16.217 77.6914 16.525 76.2334 16.525V16.252ZM77.2834 13.144C78.6274 13.144 79.6914 12.773 80.4754 12.031C81.2594 11.289 81.6514 10.246 81.6514 8.902V7.012C81.6514 5.668 81.2594 4.625 80.4754 3.883C79.6914 3.141 78.6274 2.77 77.2834 2.77C75.9394 2.77 74.8754 3.141 74.0914 3.883C73.3074 4.625 72.9154 5.668 72.9154 7.012V8.902C72.9154 10.246 73.3074 11.289 74.0914 12.031C74.8754 12.773 75.9394 13.144 77.2834 13.144ZM102.036 16.252C100.506 16.252 99.1656 15.916 98.0136 15.244C96.8756 14.572 95.9866 13.634 95.3466 12.43C94.7206 11.226 94.4076 9.833 94.4076 8.251C94.4076 6.669 94.7206 5.276 95.3466 4.072C95.9866 2.868 96.8756 1.93 98.0136 1.258C99.1656 0.586 100.506 0.25 102.036 0.25C103.454 0.25 104.717 0.565 105.827 1.195C106.937 1.825 107.798 2.714 108.412 3.862L105.512 5.71C105.134 5.122 104.647 4.681 104.052 4.387C103.471 4.093 102.796 3.946 102.036 3.946C100.734 3.946 99.7056 4.31 98.9496 5.038C98.1936 5.766 97.8156 6.815 97.8156 8.185V8.317C97.8156 9.701 98.1936 10.764 98.9496 11.506C99.7056 12.248 100.734 12.619 102.036 12.619C102.796 12.619 103.471 12.472 104.052 12.178C104.647 11.884 105.134 11.443 105.512 10.855L108.412 12.703C107.798 13.851 106.937 14.74 105.827 15.37C104.717 16 103.454 16.315 102.036 16.315V16.252ZM121.806 16.252C120.266 16.252 118.954 15.916 117.87 15.244C116.8 14.572 115.983 13.634 115.419 12.43C114.855 11.226 114.573 9.833 114.573 8.251C114.573 6.669 114.855 5.276 115.419 4.072C115.983 2.868 116.8 1.93 117.87 1.258C118.954 0.586 120.266 0.25 121.806 0.25C123.346 0.25 124.651 0.586 125.721 1.258C126.805 1.93 127.629 2.868 128.193 4.072C128.757 5.276 129.039 6.669 129.039 8.251C129.039 9.833 128.757 11.226 128.193 12.43C127.629 13.634 126.805 14.572 125.721 15.244C124.651 15.916 123.346 16.252 121.806 16.252ZM121.806 12.619C123.108 12.619 124.137 12.248 124.893 11.506C125.649 10.764 126.027 9.701 126.027 8.317V8.185C126.027 6.815 125.649 5.766 124.893 5.038C124.137 4.31 123.108 3.946 121.806 3.946C120.504 3.946 119.475 4.31 118.719 5.038C117.963 5.766 117.585 6.815 117.585 8.185V8.317C117.585 9.701 117.963 10.764 118.719 11.506C119.475 12.248 120.504 12.619 121.806 12.619ZM143.486 16.252C141.946 16.252 140.634 15.916 139.55 15.244C138.48 14.572 137.663 13.634 137.099 12.43C136.535 11.226 136.253 9.833 136.253 8.251C136.253 6.669 136.535 5.276 137.099 4.072C137.663 2.868 138.48 1.93 139.55 1.258C140.634 0.586 141.946 0.25 143.486 0.25C144.82 0.25 145.973 0.544 146.945 1.132C147.931 1.72 148.673 2.546 149.171 3.61H149.462V0.564H152.602V16H149.462V12.892H149.171C148.673 13.956 147.931 14.782 146.945 15.37C145.973 15.958 144.82 16.252 143.486 16.252ZM144.452 12.64C145.768 12.64 146.825 12.269 147.623 11.527C148.421 10.785 148.82 9.736 148.82 8.38V8.122C148.82 6.766 148.421 5.717 147.623 4.975C146.825 4.233 145.768 3.862 144.452 3.862C143.136 3.862 142.079 4.233 141.281 4.975C140.483 5.717 140.084 6.766 140.084 8.122V8.38C140.084 9.736 140.483 10.785 141.281 11.527C142.079 12.269 143.136 12.64 144.452 12.64ZM168.058 16.252C166.518 16.252 165.206 15.916 164.122 15.244C163.052 14.572 162.235 13.634 161.671 12.43C161.107 11.226 160.825 9.833 160.825 8.251C160.825 6.669 161.107 5.276 161.671 4.072C162.235 2.868 163.052 1.93 164.122 1.258C165.206 0.586 166.518 0.25 168.058 0.25C169.598 0.25 170.903 0.586 171.973 1.258C173.057 1.93 173.881 2.868 174.445 4.072C175.009 5.276 175.291 6.669 175.291 8.251C175.291 9.833 175.009 11.226 174.445 12.43C173.881 13.634 173.057 14.572 171.973 15.244C170.903 15.916 169.598 16.252 168.058 16.252ZM168.058 12.619C169.36 12.619 170.389 12.248 171.145 11.506C171.901 10.764 172.279 9.701 172.279 8.317V8.185C172.279 6.815 171.901 5.766 171.145 5.038C170.389 4.31 169.36 3.946 168.058 3.946C166.756 3.946 165.727 4.31 164.971 5.038C164.215 5.766 163.837 6.815 163.837 8.185V8.317C163.837 9.701 164.215 10.764 164.971 11.506C165.727 12.248 166.756 12.619 168.058 12.619ZM186.448 16V0.124H190.279V3.127H190.57C191.068 2.063 191.81 1.237 192.796 0.649C193.782 0.061 194.942 -0.233 196.276 -0.233C197.71 -0.233 199.015 0.089 200.191 0.733C201.367 1.377 202.302 2.315 203.002 3.547C203.702 4.779 204.052 6.249 204.052 7.957C204.052 9.651 203.695 11.121 202.981 12.367C202.281 13.613 201.346 14.565 200.176 15.223C199.006 15.881 197.701 16.21 196.261 16.21C194.927 16.21 193.782 15.916 192.826 15.328C191.884 14.74 191.142 13.914 190.6 12.85H190.309V16H186.478L186.448 16ZM195.295 12.703C196.611 12.703 197.668 12.332 198.466 11.59C199.264 10.848 199.663 9.799 199.663 8.443V7.471C199.663 6.115 199.264 5.066 198.466 4.324C197.668 3.582 196.611 3.211 195.295 3.211C193.979 3.211 192.922 3.582 192.124 4.324C191.326 5.066 190.927 6.115 190.927 7.471V8.443C190.927 9.799 191.326 10.848 192.124 11.59C192.922 12.332 193.979 12.703 195.295 12.703ZM219.111 16.252C217.545 16.252 216.219 15.916 215.135 15.244C214.065 14.572 213.248 13.634 212.684 12.43C212.12 11.226 211.838 9.833 211.838 8.251C211.838 6.669 212.12 5.276 212.684 4.072C213.248 2.868 214.065 1.93 215.135 1.258C216.219 0.586 217.545 0.25 219.111 0.25C220.677 0.25 221.988 0.586 223.058 1.258C224.142 1.93 224.959 2.868 225.523 4.072C226.087 5.276 226.369 6.669 226.369 8.251C226.369 9.833 226.087 11.226 225.523 12.43C224.959 13.634 224.142 14.572 223.058 15.244C221.988 15.916 220.677 16.252 219.111 16.252ZM219.111 12.619C220.413 12.619 221.442 12.248 222.198 11.506C222.954 10.764 223.332 9.701 223.332 8.317V8.185C223.332 6.815 222.954 5.766 222.198 5.038C221.442 4.31 220.413 3.946 219.111 3.946C217.809 3.946 216.78 4.31 216.024 5.038C215.268 5.766 214.89 6.815 214.89 8.185V8.317C214.89 9.701 215.268 10.764 216.024 11.506C216.78 12.248 217.809 12.619 219.111 12.619ZM237.501 16V0.124H241.332V3.127H241.623C242.121 2.063 242.863 1.237 243.849 0.649C244.835 0.061 245.995 -0.233 247.329 -0.233C248.763 -0.233 250.068 0.089 251.244 0.733C252.42 1.377 253.355 2.315 254.055 3.547C254.755 4.779 255.105 6.249 255.105 7.957C255.105 9.651 254.748 11.121 254.034 12.367C253.334 13.613 252.399 14.565 251.229 15.223C250.059 15.881 248.754 16.21 247.314 16.21C245.98 16.21 244.835 15.916 243.879 15.328C242.937 14.74 242.195 13.914 241.653 12.85H241.362V16H237.531L237.501 16ZM246.348 12.703C247.664 12.703 248.721 12.332 249.519 11.59C250.317 10.848 250.716 9.799 250.716 8.443V7.471C250.716 6.115 250.317 5.066 249.519 4.324C248.721 3.582 247.664 3.211 246.348 3.211C245.032 3.211 243.975 3.582 243.177 4.324C242.379 5.066 241.98 6.115 241.98 7.471V8.443C241.98 9.799 242.379 10.848 243.177 11.59C243.975 12.332 245.032 12.703 246.348 12.703ZM268.428 16.252C266.982 16.252 265.725 15.923 264.655 15.265C263.585 14.607 262.775 13.69 262.225 12.514C261.675 11.324 261.4 9.938 261.4 8.356C261.4 6.76 261.675 5.374 262.225 4.198C262.775 3.022 263.585 2.105 264.655 1.447C265.725 0.789 266.982 0.46 268.428 0.46C269.762 0.46 270.884 0.74 271.794 1.3C272.718 1.846 273.376 2.588 273.768 3.526H274.122V0.46H277.734V16H274.122V12.934H273.768C273.362 13.872 272.697 14.614 271.773 15.16C270.863 15.706 269.748 15.979 268.428 15.979V16.252ZM269.436 12.766C270.724 12.766 271.752 12.402 272.52 11.674C273.288 10.946 273.672 9.917 273.672 8.587V8.125C273.672 6.795 273.288 5.766 272.52 5.038C271.752 4.31 270.724 3.946 269.436 3.946C268.148 3.946 267.12 4.31 266.352 5.038C265.584 5.766 265.2 6.795 265.2 8.125V8.587C265.2 9.917 265.584 10.946 266.352 11.674C267.12 12.402 268.148 12.766 269.436 12.766Z" fill="white"/>
</g>
<defs>
<filter id="filter0_d_10_1273" x="0.784424" y="0.963989" width="277.704" height="19.267" filterUnits="userSpaceOnUse" color-interpolation-filters="sRGB">
<feFlood flood-opacity="0" result="BackgroundImageFix"/>
<feColorMatrix in="SourceAlpha" type="matrix" values="0 0 0 0 0 0 0 0 0 0 0 0 0 0 0 0 0 0 127 0" result="hardAlpha"/>
<feOffset dy="2"/>
<feGaussianBlur stdDeviation="1"/>
<feComposite in2="hardAlpha" operator="out"/>
<feColorMatrix type="matrix" values="0 0 0 0 0 0 0 0 0 0 0 0 0 0 0 0 0 0 0.25 0"/>
<feBlend mode="normal" in2="BackgroundImageFix" result="effect1_dropShadow_10_1273"/>
<feBlend mode="normal" in="SourceGraphic" in2="effect1_dropShadow_10_1273" result="shape"/>
</filter>
</defs>
</svg>